<?xml version="1.0" encoding="UTF-8"?>
<svg id="Camada_2" data-name="Camada 2" xmlns="http://www.w3.org/2000/svg" viewBox="0 0 321.82 233.2">
  <defs>
    <style>
      .cls-1 {
        fill: #eeac7c;
      }

      .cls-2 {
        font-family: AveriaSerifLibre-BoldItalic, 'Averia Serif Libre';
        font-size: 53.56px;
        font-style: italic;
        font-weight: 700;
      }

      .cls-2, .cls-3, .cls-4 {
        fill: #fdfaf3;
      }

      .cls-5 {
        letter-spacing: 0em;
      }

      .cls-6 {
        letter-spacing: 0em;
      }

      .cls-7 {
        letter-spacing: 0em;
      }

      .cls-4 {
        font-family: AveriaSerifLibre-Light, 'Averia Serif Libre';
        font-size: 20.62px;
        font-weight: 300;
      }

      .cls-8 {
        letter-spacing: 0em;
      }
    </style>
  </defs>
  <g id="Camada_1-2" data-name="Camada 1">
    <path class="cls-1" d="M150.39,35.64s14.54-7.31,22.41-1.54c7.86,5.77,15.94,3.28,20.39,10.55,4.45,7.27,11.6,15.71,6.48,24.73-5.11,9.02-11.22,17.63-19.08,9.44-7.86-8.19-8.42-16.21-15.78-18.22s-17.54-2.42-20.13-6.14-4.12-11.58,0-14.42c4.12-2.84,5.71-4.42,5.71-4.42Z"/>
    <g>
      <path class="cls-3" d="M138.9,107.98s-.08-.4.1-.42c.41-.05.53.19.47-.42h-1.41s0-.42,0-.42c.46-.3,1.36.34,1.4.28.25-.34-.52-.5-.28-.7.16-.13,1.04.22,1.12.14l-.14-.7c.47-.13.21.36.28.42.16.14.95-.43,1.26-.28.31.26.95.41.98.98-.31-.1-1.14-.23-1.45-.23-.57,0-1.34.45-.58.93l.07-.56c.64-.11.59.44.84.78.14.19.72.21.32.62l-1.16.7c-.11-.06-.97.02-1.26-.28-.04-.05-.1-.09-.14-.14-.18-1.11.54-.07.84-.7-.29.13-.67-.23-.78-.23-.1,0-.37.37-.49.23Z"/>
      <path class="cls-3" d="M140.73,109.1s-.03.19.04.23c.14.08.38.08.45.18.09.12.11.8.06.85-.25.31-.25-.5-.56-.28-.02.14.02.29,0,.42-.07-.05-.25-.09-.28-.14-.13-.18-.22-.44-.42-.7-.18-.24-.42-.67-.56-.84.29.3,1.15.22,1.26.28Z"/>
      <path class="cls-3" d="M146.21,28.83c-.15.85.85.45.98.56.03.03-.18.63,0,.84-.65-.1-.85-.8-1.48-.98-.52-.15.3.99-.42.7-.13-.05-.09-.44-.21-.56.35-.15.7-.39,1.12-.56Z"/>
      <path class="cls-3" d="M152.82,125.55s-.05-.76.28-.42c.22.23.2,1.73.28,2.11-.11-.03-.38.04-.42,0s-.05-.9-.15-1.16c-.05-.13-.26-.08-.28-.17-.05-.27.22-.23.28-.35Z"/>
      <path class="cls-3" d="M139.32,105.45s-.4-.02-.41,0c-.04.04.21.79-.62.71-.12-.01-.11-.28-.22-.35-.32-.21-1.19.03-1.13-.7.76-.74.86-.05,1.23.04.33.08.97-.29,1.63.05.55.28,0,.87-.25.81-.21-.05-.2-.54-.22-.56Z"/>
      <path class="cls-3" d="M145.79,30.51c.1.55-.94.18-1.26.28-.02-.62.96-.26,1.26-.28Z"/>
      <path class="cls-3" d="M150.43,28.83c0,.66-.56.25-.98.28-.11-.52.69-.2.98-.28Z"/>
      <rect class="cls-3" x="148.45" y="29.27" width=".3" height=".79" transform="translate(22.53 113.75) rotate(-44.99)"/>
      <path class="cls-3" d="M148.74,28.69c.21.24-.18.63-.42.42-.15-.13.29-.57.42-.42Z"/>
      <path class="cls-3" d="M149.44,29.67c-.15.14-.56-.28-.42-.42s.56.28.42.42Z"/>
      <path class="cls-3" d="M149.44,124.42c.17.08,1.33.48,1.41.42l-.42-.98h.84c-.01.14.01.28,0,.42,0,.02-.2.13-.14.28,1.07.01-.05.78.84,1.06-.03.49-.91-.04-1.12.42-.14.3.67.37.71.59.05.3-.17,1.17-.01,1.59-.17.22-.26,0-.28-.21-.06-.47.24-1.33-.42-1.34.15.6.01,1.79.17,2.29.07.24.89.53.54.94-.07.09-.76-.41-.8-.46-.09-.13-.28-1.05-.32-1.09-.06-.05-.39.17-.42.14-.02-.02.03-.43-.21-.56l-.42.28c-.26-.25-.56-.44-.49-.84,1.14-.3,1.06.54,1.83.84.07-.08-.09-1.01-.17-1.16-.13-.26-.47-.29-.52-.47-.1-.31.36-.58.21-.89-.19-.4-.92-.59-1.34-.57.13-.35.74-.08.56-.7Z"/>
      <path class="cls-3" d="M151.13,122.6s-.11.34-.11.49c0,.21.3.84-.29.48-.38-.23-.01-1.37.41-.97Z"/>
      <path class="cls-3" d="M149.86,123.86c-.28.25-.73-.32-.56-.7.29-.14.67.61.56.7Z"/>
      <path class="cls-3" d="M143.26,113.18c-.03-.21-.03-.36.21-.28.15.05.04.19.07.28.14,0,.28,0,.42,0,.02.71-.21.53-.42,0-.09,0-.19,0-.28,0Z"/>
      <path class="cls-3" d="M150.43,123.72c-.15.14-.56-.28-.42-.42s.56.28.42.42Z"/>
      <path class="cls-3" d="M148.32,63.69c.58-.06,1.25.06,1.83,0,.94.37.19,1.04.28,1.12.79-.38,1.55-.06,2.34.26.25.1.5.03.47.44-2.1.18-3.48.58-5.76.28.12-.45-.37-.23-.42-.28-.01-.02-.02-.41,0-.42.04-.04.91.15.56-.41-.06-.1-.69-.04-.55-.36.15-.36.9-.6,1.26-.63Z"/>
      <path class="cls-3" d="M195.26,4.08c-.31,1.15.63.65.56,1.41-.12.14-.26.13-.42.14,0-.87-1.23-.43-1.41-.56-.03-.02.03-.25,0-.28.11-.13.26-.16.42-.14.03,0,.3.26.42.14.04-.04-.03-.32,0-.42.06-.16.28-.21.42-.28Z"/>
      <path class="cls-3" d="M193.99,4.79s-.03.26,0,.28c.17.13,1.41-.31,1.41.56-.05,0-.09,0-.14,0-.13,0-1.27-.09-1.32-.13-.13-.1-.08-.3-.08-.43l-.7.14c.14-.09.25-.38.56-.42.06,0,.27-.01.28,0Z"/>
      <path class="cls-3" d="M177.83,46.54c-.28.56,1.13.85.84,1.12-.12.11-.44-.25-.64-.28-.38-.06-.77.28-1.05,0,.31-.35.62-.6.84-.84Z"/>
      <path class="cls-3" d="M179.52,39.65c1.32.16.44.43.42.51-.05.22.12.61-.14.75-.05-.3-.2-.95-.28-1.27Z"/>
      <path class="cls-3" d="M183.59,14.07c0,.09,0,.19,0,.28.15-.01.29-.07.42-.14-.05.17.06.47-.14.63.84-.16.63.03.21.49-.58-.11-.46-.57-.49-.99-.14.01-.28,0-.42,0-.07-.39.12-.28.42-.28Z"/>
      <path class="cls-3" d="M165.89,27.42c.21-.01.95-.47.84.14-.29-.02-.59.09-.84-.14Z"/>
      <path class="cls-3" d="M194.84,4.37c-.04.1.04.38,0,.42-.13.12-.39-.14-.42-.14v-.28c.1.03.3-.02.42,0Z"/>
      <path class="cls-3" d="M164.9,27.42s-.09,0-.14,0l.07-.14.07.14Z"/>
      <path class="cls-3" d="M149.3,56.66c.18.43.37.76.28,1.27-.29-.03-.73.08-.99-.07-.22-.13-.2-.61-.36-.65-.47-.1-1.07.57-1.39.57-.23,0-1.06-.76-1.29-.83-.27-.07-1.04.33-1.16-.23-.16-.72,1.38.29,1.12-.63,1.22.13,2.61.48,3.79.56Z"/>
      <path class="cls-3" d="M160.54,46.12c.03.06.35.16.28.42.67.37,1.32.87,2.11.98l.7.84c-.61.05-1.06.77-1.73.55-.09-.03-.61-.7-.63-.78-.05-.26.34-.7.25-1.03l-.84.14.14-.7c-.87.15-1.32-.26-.28-.42Z"/>
      <path class="cls-3" d="M152.82,56.1c.33.87.02.42-.46.6-.68.26-.7,1.05-.91,1.1-.69.15-1.08-.57-1.17-1.13.7-.07,1.77-.41,2.53-.56Z"/>
      <path class="cls-3" d="M159.28,47.52c.3.03.45-.04.63-.29.13-.19-.07-.51.36-.41-.36.78.6.26.42.98l-.84.28s-.22,0-.35-.14c-.12-.12-.14-.33-.21-.42Z"/>
      <path class="cls-3" d="M164.62,47.38l.14,1.26c-.56-.04-.8-.64-.7-1.12.08,0,.33-.13.56-.14Z"/>
      <path class="cls-3" d="M161.53,49.07c.37.1,1.11,0,.98.42-.34-.03-1.13-.06-.98-.42Z"/>
      <path class="cls-3" d="M163.5,49.49c-.23,0-.47.01-.7,0-.1-.78.36-.32.7,0Z"/>
      <rect class="cls-3" x="151.97" y="57.37" width=".42" height=".42" transform="translate(94.06 209.55) rotate(-89.8)"/>
      <path class="cls-3" d="M165.32,47.1c-.04.09.04.38,0,.42-.08.08-.35-.13-.42-.14-.07-.38.09-.29.42-.28Z"/>
      <path class="cls-3" d="M153.94,54.83s.26.28.14.42c-.03.04-.25-.03-.28,0l.14-.42Z"/>
      <path class="cls-3" d="M164.62,49.35c-.08.02-.18.11-.42.14-.05-.33.02-.31.35-.28l.07.14Z"/>
      <path class="cls-3" d="M159,47.1c.3-.03.32-.02.28.28-.02-.02-.03.11-.28-.28Z"/>
      <path class="cls-3" d="M160.83,48.79c-.28-.13-.28-.19-.42-.28l.42.28Z"/>
      <path class="cls-3" d="M152.96,56.1c.04-.05.09-.1.14-.14-.04.04-.09.13-.14.14Z"/>
      <path class="cls-3" d="M144.95,56.1c-.06,0-.13-.07-.14-.14.06.01.11.08.14.14Z"/>
      <path class="cls-3" d="M184.16,18c.48-.57,1.96-.88.98.14-.34-.03-.67-.13-.98-.14Z"/>
      <path class="cls-3" d="M181.77,43.17c0-.17-.39-.68.14-.98.01.25.23.65-.14.98Z"/>
      <path class="cls-3" d="M185.42,16.74c.06.53-.26.23-.56.14.1-.21.38-.14.56-.14Z"/>
      <path class="cls-3" d="M181.91,41.48c0-.17,0-.31,0-.42.21.02.21.4,0,.42Z"/>
      <path class="cls-3" d="M181.2,38.39c.28-.04.32,0,.28.28-.14-.1-.2.23-.28-.28Z"/>
      <path class="cls-3" d="M181.77,39.51s-.25.03-.28,0c-.08-.08.14-.26.14-.28l.14.28Z"/>
      <path class="cls-3" d="M181.91,40.07s-.2.01-.28,0c-.06-.16.14-.26.14-.28l.14.28Z"/>
      <path class="cls-3" d="M205.09,73.67c.04.35.01.74-.42.7-.04-.35-.01-.74.42-.7Z"/>
      <path class="cls-3" d="M176.14,82.11s-.53.5-.42-.28c.14.09.32.13.42.28Z"/>
      <path class="cls-3" d="M204.25,70.86c.23,0,.66.09.78.28.07.12-.05.94-.09.98-.08.07-.89-.03-1.12,0,.12-.37.34-.94.42-1.27Z"/>
      <path class="cls-3" d="M199.33,45.7c.06.04.3.05.46.14.2.12.35.6.95.42l-.7.56s-.19.05-.33-.17c-.18-.29-.39-.58-.37-.95Z"/>
      <path class="cls-3" d="M200.74,45.98c-.24.21-.63-.18-.42-.42.13-.15.57.29.42.42Z"/>
      <rect class="cls-3" x="182.75" y="14.77" width=".56" height=".42"/>
      <path class="cls-3" d="M185.84,15.47c-.12.34-.44.4-.7.56-.06-.72.34-.47.7-.56Z"/>
      <rect class="cls-3" x="185" y="14.21" width=".42" height=".28"/>
      <rect class="cls-3" x="185.84" y="14.63" width=".42" height=".28"/>
      <path class="cls-3" d="M181.91,31.78c-.07-.78.49-.47.91-.57s.6-.35,1.2-.13c.08.75-1.41.28-1.55.42l.14.7c-.71-.25-.57-.35-.7-.42Z"/>
      <path class="cls-3" d="M183.73,32.76c-.42-.19-.51-.32-.7-.42.23-.88.86-.35.7.42Z"/>
      <path class="cls-3" d="M181.06,31.5c.25.07.5-.18.42.28-.19-.05-.35-.03-.42-.28Z"/>
      <path class="cls-3" d="M184.86,33.33c-.25-.1-.58-.08-.7-.42.25.1.53.22.7.42Z"/>
      <path class="cls-3" d="M185.14,33.47l-.14-.14c.09.05.12.13.14.14Z"/>
      <path class="cls-3" d="M185.42,33.61l-.14-.14c.06.04.1.12.14.14Z"/>
      <path class="cls-3" d="M182.89,32.34l-.14-.14c.1.04.12.13.14.14Z"/>
      <path class="cls-3" d="M184.01,32.9l-.14-.14c.11.05.13.14.14.14Z"/>
      <g>
        <path class="cls-3" d="M179.1,30.8c0-.31.41-.46.42-.5.13-.51-.46-.29-.42-.77.8.38,1.22.46,2.11.28l-.56.7c.37.07.83-.23,1.17-.15.16.04.16.39.32.43.07.02.88-.32,1.05-.42,3.32,1.51,6.74,3.06,9.7,5.2.26.19.56.49.84.7,3.83,2.94,7.06,6.62,9.42,10.82-.46.12-1.23.18-1.26-.42l.7-.28c-.43.14-.74-.52-.93-.56-.2-.04-.35.35-.61.27.21-1.32-1.24-.76-1.53-1-.16-.14.1-.84-.86-.4-4.05-4.69-7.91-7.79-13.21-11.11-.04-.03-.08-.1-.14-.14-.03-.02-.11.02-.14,0-.02-.01-.05-.09-.14-.14-.04-.02-.1.02-.14,0-.18-.2-.46-.33-.7-.42-.04-.02-.1.02-.14,0,0,0-.03-.09-.14-.14-.04-.02-.1.02-.14,0,.16-.77-.47-1.3-.7-.42-.04-.02-.1.02-.14,0-.02,0-.04-.11-.14-.14-.04-.01-.1.01-.14,0l-.14-.7c.13-.14,1.62.32,1.55-.42-.6-.22-.78.03-1.2.13s-.98-.21-.91.57c-.07-.04-.31.03-.42,0,.08-.46-.17-.21-.42-.28-.67-.18-1.31-.47-1.97-.7Z"/>
        <path class="cls-3" d="M159.14,25.59c-.01.55-.08.36.31.38,1.9.08,3.94.02,5.8-.09.77-.05,1.55.03,2.32,0-.58,1.46,1.01.45,1.12.56.23.37-.59.7-.77.7-.25,0-.48-.38-.72-.4s-.47.36-.68.35c-.09,0-.28-.21-.56-.24-1.46-.13-3.24.17-4.68-.1-.25-.05-.49-.05-.74-.03-.35.27.94.6.98.7-3.17.19-6.76.95-9.84,1.83.02-.79-2.1-.56-2.11-.91,0-.32.59-.05.7-.13.2-.14.14-.56.14-.78,3.03-.97,5.5-1.5,8.71-1.83Z"/>
        <path class="cls-3" d="M167.99,25.45c.09,0,.32.11.56.14,1.15.15,2.38.44,3.51.7.16,1.02-.81.66-1.48.7-.16.01-.47-.08-.35.21.39.96,1.55-.08,2.11.27.06.04.7,1,.7,1.2-1.97-.52-4.29-.98-6.32-1.12.1-.61-.64-.15-.84-.14-.32.02-.66,0-.98,0l-.07-.14-.07.14c-1.06.02-2.18-.06-3.23,0-.04-.1-1.33-.44-.98-.7.25-.01.49-.01.74.03,1.43.27,3.21-.03,4.68.1.27.03.46.23.56.24.21.01.43-.37.68-.35s.47.4.72.4c.18,0,1-.33.77-.7-.11-.11-1.71.9-1.12-.56-.77.03-1.55-.05-2.32,0-1.86.11-3.9.18-5.8.09-.4-.02-.33.18-.31-.38.58-.06,1.54-.28,2.04-.28h3.65c.78,0,2.37.05,3.16.14Z"/>
        <path class="cls-3" d="M176,27.42c.11.51-.68.29-.56.63.05.14.28.04.42.14s.1.31.2.44c.05.07.21.04.22.05.14.19-.56.51-.27.84-.8-.28-2.09-.62-2.95-.84,0-.2-.64-1.17-.7-1.2-.56-.35-1.72.68-2.11-.27-.12-.29.19-.2.35-.21.66-.05,1.63.32,1.48-.7,1.38.31,2.6.7,3.94,1.12Z"/>
        <g>
          <path class="cls-3" d="M150.43,27.42c0,.23.07.64-.14.78-.11.08-.71-.19-.7.13,0,.35,2.12.13,2.11.91-3.51,1-7.48,2.58-10.5,4.75-4.9,3.51-7.06,7.89-9.31,13.25-.11.26-.1.47-.14.56-1.58,3.75-3.11,7.05-6.4,9.7-2.22,1.78-4.7,2.48-7,3.96-1.1.71-3.25,2.24-1.72,3.64,1.06.97,2.34,1.4,3.45,2.1.22.14,1.11.93,1.26,1.12,1.92,2.39.08,4.59-2.11,5.76-.09.05-.19.09-.28.14-.72.37-2.98,1-2.95,2.04s4.32,1.9,3.84,4.11c-.36,1.63-2.73,1.84-3.7,2.7-1.35,1.19.73,1.76,1.41,2.39.07.07.65.87.73,1.03.56,1.21.13,2.23-.45,3.33-.08.15-.31.35-.42.56s-.19.4-.28.56c-.07.12-.19.26-.28.42-.05.1-.09.19-.14.28-.06.12-.19.24-.28.42-.92,1.94-.67,3.14.84,4.64.34.33.58.57.98.84,3.11,2.08,7.78,1.92,11.41,2.57,4.96.9,8.27,2.49,12.06,5.72-.31-.15-1.1.42-1.26.28-.07-.06.19-.55-.28-.42l.14.7c-.08.08-.97-.27-1.12-.14-.24.21.53.36.28.7-.04.06-.95-.58-1.4-.28v.42s1.41,0,1.41,0c.07.6-.06.36-.47.42-.17.02-.11.41-.1.42.12.14.39-.23.49-.23.11,0,.49.36.78.23-.31.63-1.02-.4-.84.7-.31-.38-.31-.55-.42-.7-.07-.09-1.52-1.14-1.83-1.41-.25-.21-.54-.46-.84-.7-1.59-1.25-2.83-2.05-4.81-2.71-5.12-1.71-12.63-.84-16.41-5.44-.05-.06-.31-.53-.42-.7-.75-1.16-1.16-2.53-.98-3.94.04-.29.3-.95.42-1.27.06-.17.07-.41.14-.56.01-.03.31-.38.42-.56s.2-.44.28-.56c.41-.61,1.36-1.24,1.41-2.11.06-1.08-1.4-1.6-2.04-2.24-1.12-1.13-1.12-2.25-.49-3.66.6-.28,1.03-.79,1.64-1.1s1.41-.33,1.87-.94c0-.34-2.27-1.44-2.67-1.9-.49-.57-.85-1.94-.7-2.67.06-.31,1.13-1.62,1.41-1.83.45-.33,1.96-1.1,2.53-1.41.15-.08.31-.05.7-.28.23-.14.57-.09.56-.56.04,0,.1,0,.14,0,.59-.16.62-1.09.4-1.59-.44-1.01-3.08-1.97-4.1-2.79-1.64-1.31-1.64-1.9-1.64-3.91v-.28c.22-.21.46-.94.7-1.27.06-.07.6-.61.7-.7.17-.15.38-.28.56-.42.26-.2.71-.53.98-.7.07-.04.18-.08.28-.14.34-.21.82-.53,1.12-.7,1.49-.85,2.87-1.33,4.36-2.39,1.39-.99,2.11-1.69,3.09-3.09.62-.89,1.23-1.96,1.69-2.95.24-.53.37-.92.56-1.41.96-2.43,1.78-4.76,3.09-7.03.13-.22.39-.56.56-.84.55-.89,1.22-1.98,1.83-2.81.21-.28.52-.76.7-.98.25-.32.82-.93,1.12-1.27.15-.16.38-.38.56-.56.09-.09.19-.19.28-.28s.19-.19.28-.28c.68-.67,1.64-1.54,2.39-2.11.09-.07.27-.17.42-.28,1.85-1.34,3.82-2.32,5.9-3.23.13.13.08.51.21.56.72.29-.1-.85.42-.7.63.18.83.88,1.48.98-.18-.21.03-.82,0-.84-.14-.11-1.14.28-.98-.56,1.33-.54,2.83-.97,4.22-1.41ZM148.74,28.69c-.13-.15-.57.29-.42.42.24.21.63-.18.42-.42ZM150.43,28.83c-.3.08-1.1-.24-.98.28.42-.03.97.38.98-.28ZM149.44,29.67c.14-.14-.27-.56-.42-.42s.27.56.42.42ZM148.43,29.28l-.21.21.56.56.21-.21-.56-.56ZM145.79,30.51c-.3.02-1.28-.34-1.26.28.32-.1,1.36.27,1.26-.28ZM139.32,105.45s.01.5.22.56c.24.06.8-.53.25-.81-.66-.34-1.3.03-1.63-.05-.37-.09-.47-.78-1.23-.04-.06.73.82.49,1.13.7.11.07.11.34.22.35.83.08.58-.67.62-.71.01-.02.39-.01.41,0Z"/>
          <path class="cls-3" d="M147.05,122.88c.12-.24.74-.04.88.03.31.16.27.57.66.53.07-.07.06-1.45.56-.98.08.07-.46,1.6.28,1.97.17.62-.44.35-.56.7.42-.02,1.15.17,1.34.57.15.3-.31.57-.21.89.06.18.39.22.52.47.08.16.24,1.09.17,1.16-.77-.3-.69-1.14-1.83-.84-.07.4.23.6.49.84l.42-.28c.24.14.19.54.21.56.03.03.36-.2.42-.14.04.04.24.95.32,1.09.04.06.73.55.8.46.35-.41-.46-.7-.54-.94-.15-.5-.01-1.69-.17-2.29.66,0,.36.87.42,1.34.03.21.11.43.28.21-.16-.42.06-1.29.01-1.59-.04-.22-.85-.29-.71-.59.21-.46,1.09.07,1.12-.42-.89-.28.22-1.05-.84-1.06-.05-.15.14-.26.14-.28l1.41.14c0,.33-.37.8.14,1.12-.07.12-.34.08-.28.35.02.1.23.04.28.17.1.26.11,1.12.15,1.16s.31-.03.42,0c.56.16.16,1.09.19,1.46s.31.98.36,1.44c.33,3.07.33,6.18.71,9.27.08.65-.27,2.42-.41,3.15-.11.62-.82,2.12-1.5,2.23-.06,0-1-.59-1.04-.64-.04-.05-.5-1.03-.55-1.17-.83-2.1-1.03-5.13-1.41-7.37-.12-.72-.16-1.52-.28-2.11-.09-.45-.23-.64-.34-1.34-.43-2.69-1.22-6.74-2.05-9.27Z"/>
          <path class="cls-3" d="M143.26,113.18c.09,0,.19,0,.28,0,.21.53.44.71.42,0h.14c.41,1.17,1.51.08,1.97.56.31.33-.4.26-.42.28-.37.43,1.29,2.33,2.43,1.83.19-.09.05-.38.09-.43.18-.2.61.77,1.12.56.32.55.49,1.99.83,2.44.1.13.32.03.44.18.47.55.29,1.67.64,2.43.21.45.6.53.69.71.06.13.77,2.53.77,2.67l-1.41-.14c.02-.14,0-.28,0-.42h-.84s.42.98.42.98c-.08.06-1.24-.34-1.41-.42-.74-.37-.2-1.9-.28-1.97-.51-.46-.49.91-.56.98-.39.04-.36-.37-.66-.53-.15-.08-.76-.27-.88-.03-.64-1.98-1.86-4.45-2.81-6.33-.1-.19-.18-.37-.28-.56-.09-.17-.21-.29-.28-.42-.19-.33-.2-.95-.7-1.12.03-.57-.31-.86-.56-1.27.31.19.58.01.84,0ZM151.13,122.6c-.42-.4-.79.74-.41.97.59.36.29-.27.29-.48,0-.15.16-.45.11-.49ZM149.86,123.86c.1-.09-.27-.84-.56-.7-.17.38.28.95.56.7ZM150.43,123.72c.14-.14-.27-.56-.42-.42s.27.56.42.42Z"/>
          <path class="cls-3" d="M142.7,106.85c.86.28,2.82,2.95,3.43,3.81.85,1.2,1.56,2.42,2.39,3.51.32.43.44,1.24.78,1.82-.52.21-.95-.77-1.12-.56-.04.05.1.34-.09.43-1.14.51-2.8-1.4-2.43-1.83.02-.02.73.05.42-.28-.45-.48-1.56.6-1.97-.56-.04-.12.06-.49,0-.56-.06-.05-.55.08-.7-.22-.16-.32.77-.09.42-.62-.16-.25-.86.02-1.03,0-.06,0-.18-.44-.51-.29l.7-.28c-.09-.8-1.25-.28-1.83-.28-.14,0-.3-.08-.42-.14.02-.08-.02-.19,0-.28.02-.13-.02-.29,0-.42.31-.22.31.59.56.28.04-.05.02-.73-.06-.85-.07-.1-.31-.1-.45-.18-.07-.04-.03-.23-.04-.23l1.16-.7c.4-.41-.18-.43-.32-.62-.25-.34-.2-.89-.84-.78l-.07.56c-.76-.47.01-.92.58-.93.32,0,1.15.13,1.45.23Z"/>
          <path class="cls-3" d="M141.15,110.93c.58,0,1.74-.52,1.83.28l-.7.28c.33-.16.46.28.51.29.17.02.87-.25,1.03,0,.35.54-.57.3-.42.62.14.3.64.17.7.22.07.06-.04.43,0,.56h-.14c-.14,0-.28,0-.42,0-.04-.09.08-.23-.07-.28-.24-.07-.23.07-.21.28-.26.01-.53.19-.84,0-.1-.17-.37-.33-.42-.42-.27-.45-.65-1.31-.84-1.83Z"/>
          <path class="cls-3" d="M136.79,46.96c.1-.17,1.26-1.37,1.48-1.54,3.31-2.65,8.54.18,10.96-1.97,1.88-1.67-1.08-3.32-1.97-4.36-2.19-2.57-.06-4.91,2.41-6.03,4.77-2.16,12.91-1.8,16.27,2.67.42.56,1.26,2.54,1.37,2.63.05.05,1.08.25,1.38.38,2.8,1.2,4.74,3.23,6.3,5.79.53.88,1.09,1.88,1.43,2.85-.12-.09-.7,0-.7.35,0,.12.84.2.7.63h-.98s.14.56.14.56c-.17.03-.41-.04-.56,0-1.36-3.48-3.39-6.79-6.88-8.43,1.19,3.62.84,7.96-3.51,8.86l-.07-.14c-.33-.03-.4-.05-.35.28-.22.03-.47,0-.7,0-.34-.32-.8-.78-.7,0-.09,0-.19,0-.28,0,.13-.42-.61-.33-.98-.42-.41-.11-.39-.14-.7-.28l-.42-.28c-.31-.2-.29-.19-.56-.42l.84-.28c.17-.72-.78-.2-.42-.98-.42-.1-.23.22-.36.41-.17.25-.33.32-.63.29-.02-.03.02-.11,0-.14.03-.3.02-.31-.28-.28-2.18-3.47.32-7.41,3.9-8.54.6-.19,1.47-.23,1.97-.43.13-.05.24,0,.16-.23-.21-.55-1.4-1.94-1.88-2.34-2.91-2.42-10.52-2.37-13.56-.2-2.74,1.96.75,3.31,1.82,4.77,2.17,2.97-.92,5.77-3.88,6.1-2.53.28-7.33-1.16-8.75,1.65-1.19,2.36.72,5.29,2.72,6.52,1.84-3.08,5.01-4.51,8.57-4.21,2.87.24,7.48,2.5,5.58,6-1.67,3.08-8.12,2.42-10.99,1.66-.82-.21-1.57-.59-2.39-.77-.56,2.44.96,4.77,3.16,5.77.94.42,1.91.56,2.88.84-.37.04-1.11.28-1.26.63-.14.32.49.26.55.36.36.56-.51.37-.56.41-.01.01-.01.4,0,.42.05.05.54-.17.42.28-.34-.04-.78-.19-1.12-.28-.13-.04-.5-.21-.7-.28-1.75-.65-3.17-1.53-4.22-3.09-.22-.33-.71-1.07-.84-1.41-.37-.93-.34-2.23-.28-3.23.02-.33.09-.54.14-.84.03-.15.18-.47.13-.54-.76-.44-1.94-1.2-2.52-1.85-.03-.03-.36-.48-.42-.56-.23-.32-.67-1.16-.84-1.55-.13-.3-.52-1.29-.56-1.55-.05-.36-.04-1.17,0-1.55.03-.31.42-1.87.56-2.11ZM160.54,46.12c-1.03.16-.58.57.28.42l-.14.7.84-.14c.09.33-.3.78-.25,1.03.02.08.54.74.63.78.67.23,1.13-.5,1.73-.55l-.7-.84c.32.05.78,0,1.12,0-.1.49.14,1.08.7,1.12l-.14-1.26c.09,0,.19-.01.28,0,.07,0,.34.22.42.14.04-.04-.04-.34,0-.42.18-.4.76-.78,1.01-1.31.8-1.75.27-4.16-.4-5.86-3.07-.03-6.08,1.85-5.66,5.27.02.17.2.78.27.93ZM153.94,54.83c-.03-.34.08-.57-.13-.92-.1-.16-1.28-1.03-1.52-1.15-1.55-.76-4.18-.81-5.79-.25-1.27.45-2.83,1.62-3.38,2.88.63.11,1.04.41,1.69.56.02.07.08.13.14.14.18.02.38-.02.56,0,.26.92-1.28-.09-1.12.63.12.56.89.16,1.16.23.24.06,1.06.83,1.29.83.33,0,.92-.67,1.39-.57.16.03.14.51.36.65.25.15.69.04.99.07.09-.5-.1-.83-.28-1.27.29.02.7.03.98,0,.09.56.48,1.28,1.17,1.13.2-.04.22-.83.91-1.1.47-.18.79.27.46-.6.05,0,.1.01.14,0,.05-.01.1-.1.14-.14.34-.25.45-.47.7-.7.03-.03.24.04.28,0,.12-.14-.13-.39-.14-.42ZM151.97,57.36v.42s.42,0,.42,0v-.42s-.42,0-.42,0Z"/>
          <path class="cls-3" d="M183.59,13.5c-1.02-.02-.31,1.32-1.41,1.12-.03-.3-.25-1.23-.35-1.54-.29-.9-1.26-2.02-2.03-2.53-.11.7.09,1.38.14,2.04.02.2-.13.42-.11.67.12,1.27,1,2.28,1.79,3.2-.44.61.2.32.35.56.09.14.04.4.14.56s.42.19.47.37c.03.13-.18.43-.12.48.44.39.41-.54.55-.64.27-.19.73.21.57-.53-.01-.07-.56-.16-.28-.37.32-.25.74.55,1.05.56.09,0,.23-.51.21-.56.09.02.21-.02.28,0,.3.09.62.39.56-.14,2.24-.05,4.49-.04,6.18-1.76-1.4-.38-3.36-.31-4.78.07l-.14-.7.7-.21c-.24-.37-.57-.39-.98-.35-.01-.17.22-.21.28-.28.85.04,1.75-.36,2.6-.42.34-.02.72-.02,1.05,0,.48.03,1.32.19,1.83.28.13.02.3-.02.42,0,.34.07.7.31.98.42.5.2,1.23.04.62,1.12-.12.22-1.86,1.67-2.18,1.9-1.35.95-2.99,1.39-4.63,1.49-.83.05-1.49-.07-2.25-.14.98-1.02-.51-.71-.98-.14-.24-.01-.6-.07-.77.14l-1.33,2.67c1.79-.68,3.44-.79,5.34-.7,1.44.06,2.11,0,1.24,1.59-.8,1.46-2.36,2.81-4.05,3.05-.17.02-.38,0-.56,0-.09,0-.19,0-.28,0-.64,0-1.07-.06-1.69-.14-.56-.07-1.1-.27-1.67-.27-.18.13-1.21,3.79-1.12,4.11s2.16.99,2.61,1.19.91.55,1.31.73c-.16.09-.98.44-1.05.42-.15-.04-.16-.39-.32-.43-.34-.08-.8.21-1.17.15l.56-.7c-.89.18-1.3.09-2.11-.28-.04.48.55.26.42.77-.01.04-.43.19-.42.5.01,1.61.48,3.18,1.02,4.67.37,1.04.91,1.8,1.09,2.92.08.51.14.18.28.28.02.02.14.48.14.56,0,.02-.22.2-.14.28.03.03.24-.03.28,0,.01,0,.01.22,0,.28,0,.02-.2.12-.14.28.08.02.26-.02.28,0,.03.04,0,.8,0,.98,0,.11,0,.25,0,.42,0,.23-.01.47,0,.7-.53.31-.14.82-.14.98,0,.09,0,.19,0,.28-.45-.09-.34.6-.43.84-1.04.09-.5-.38-.58-.87-.04-.26-.34-.52-.37-.77-.05-.42.48-1.06-.45-1.02,0-.04-.11-.54-.14-.7.26-.14.09-.53.14-.75.02-.08.9-.36-.42-.51-.53-2.1-1.8-3.99-2.19-6.18-.19-1.08-.34-2.22-.08-3.3-.02-.07-1.1-.59-1.25-.64-.29-.33.42-.65.27-.84-.01-.02-.17.01-.22-.05-.09-.13-.06-.34-.2-.44s-.37,0-.42-.14c-.12-.34.67-.12.56-.63.04.01.1-.01.14,0,.14.04.28.1.42.14.04.01.09.13.14.14.28.08.55.12.84.14,0-.24.1-.47.14-.7.29-1.65.64-2.67,1.26-4.22.22-.56.47-1.33.7-1.83.51-1.06,1.26-2.06,1.83-3.09-2.19-.48-3.51-3.29-3.51-5.34,0-.14,0-.28,0-.42,0-.02.14-.16.15-.34.05-1.12.1-2.24.16-3.36.26-.88,1.56.12,2.04.43,1.63,1.04,3.01,2.54,3.27,4.53ZM186.54,21.8h-2.46c-.07,0-1.13.43-1.32.51l-1.28.9h3.02c.5,0,1.79-.89,2.04-1.41Z"/>
          <path class="cls-3" d="M203.69,72.55c.49.88.71-.01,1.18,0,.23,0,.47.76.22.99l.56-.14c.11.3-.25.6-.26.8s.27.33.24.51c-.05.32-.66.67.44.8-1.99,4.48-3.87,6.86-7.81,9.84-.17.13-.41.13-.34.43-.27-.04-.32.11-.42.14-2.01.59-3.67,1.62-5.9,1.97-.26.04-.58-.03-.84,0-6.26.76-11.82-.47-17.01-4.08-.19-.13-.48-.39-.7-.56.39-.48,1.49-.4,1.69-.78.25-.48-1.31-.16-1.39-.22-.03-.03-.12-.56-.15-.69.15,0,.8-.09.84-.14.02-.02-.01-.58.28-.28s-.26.26-.28.28c-.26.29,1.13.93,1.26.14.12.1.29.2.42.28-.11.79.38.28.42.28.46.01,1.74.9,2.29,1.15,5.82,2.59,12.65,2.29,18.27-.75,3.52-1.91,5.71-6.29,6.98-9.95ZM205.09,73.67c-.43-.04-.46.35-.42.7.43.04.46-.35.42-.7Z"/>
          <path class="cls-3" d="M198.63,44.71c.96-.44.71.27.86.4.28.25,1.73-.32,1.53,1,.26.08.41-.31.61-.27.19.03.5.69.93.56l-.7.28c.03.6.81.54,1.26.42,1.19,2.11,2.75,5.23,3.51,7.45.08.22.21.72.28.98.62,2.2,1.36,5.86,1.42,8.09,0,.34-.18.76-.16.96,0,.07.42.39.3,1.29-.33,2.5-.55,5.21-1.44,7.69-.25.68-.68,1.32-.95,1.93-1.1-.13-.5-.48-.44-.8.03-.18-.25-.31-.24-.51s.36-.49.26-.8l-.56.14c.24-.23.01-.99-.22-.99-.47,0-.7.89-1.18,0,.05-.14.09-.28.14-.42.22-.04,1.04.07,1.12,0,.04-.03.16-.85.09-.98-.12-.2-.55-.28-.78-.28,1.61-6.16.43-13.97-2.13-19.73-.38-.86-1.66-3.7-2.09-4.31l.7-.56c-.6.17-.74-.31-.95-.42-.16-.09-.4-.1-.46-.14-.53-.38-.47-.71-.7-.98ZM200.74,45.98c.15-.13-.29-.57-.42-.42-.21.24.18.63.42.42Z"/>
          <path class="cls-3" d="M189.07,0s.2-.04.25.03c1.25,1.83,2.24,4.2,1.72,6.44.23.05.33-.04.49-.14.46-.25,1.07-.79,1.61-1.13l.7-.14c0,.14-.05.33.08.43.05.04,1.19.13,1.32.13l-3.23,2.32c.72.08,1.53.13,2.25.07-.06.25.13.94.36.98.14.03.3-.23.52-.24.77-.05,1.22.93,1.58-.32.37.23,1.18-.08,1.19.56-.06.01-.11.08-.14.14-.03-.01-.09,0-.14,0-.58-.06-2.21.51-3.02.56-1.2.07-3.34-.4-4.33-.11-.59.17-3.09,3.25-3.61,3.91-.06.07-.3.11-.28.28.41-.04.74-.01.98.35l-.7.21.14.7c-.19.05-.52.3-.98.42-.36.09-.77-.16-.7.56-.26.16-.44.48-.84.42-.12.28.27.38.28.42.02.05-.13.57-.21.56-.31,0-.74-.81-1.05-.56-.28.21.27.3.28.37.16.74-.3.34-.57.53-.15.1-.11,1.03-.55.64-.06-.05.15-.35.12-.48-.04-.18-.37-.21-.47-.37s-.05-.42-.14-.56c-.15-.24-.79.05-.35-.56l.56.28c-.05-.68.07-1.44,0-2.11,1.1.2.38-1.15,1.41-1.12.02.18-.02.38,0,.56-.3,0-.49-.11-.42.28.14,0,.28.01.42,0,.04.42-.08.88.49.99.42-.47.64-.65-.21-.49.2-.16.09-.46.14-.63.04-.15.31-.54.42-.7.2-.29.48-.56.7-.84.17-.21.28-.53.42-.7.2-.25.42-.47.7-.84.03-.03.6-.18.54-.61-.02-.13-.71-1.23-.82-1.5,0-.05,0-.09,0-.14-.43-3.38.07-4.17,1.69-7.03.14-.24.35-.46.4-.78l-.12-.07c.06-.07.08-.21.14-.28.18-.23.37-.35.42-.7.04,0,.09,0,.14,0,.14,0,.28,0,.42,0ZM188.09,9.43c1.17-2.08,1.99-4.25.98-6.61-.38.51-.77,1.28-1.01,1.87-.71,1.76-.82,2.64-.18,4.45.05.14.02.32.21.28ZM185.42,14.21h-.42v.28h.42v-.28ZM186.26,14.63h-.42v.28h.42v-.28ZM182.75,14.77v.42h.56v-.42h-.56Z"/>
          <path class="cls-3" d="M167.43,72.13c.05.45-.13.26-.39.18-.5-.14-1.34-.48-1.64-.9-.09-.13-.07-.39-.08-.41-.1-.1-.68.36-1.03.29-.14-.03-.24-.65-.66-.57-2.63-3.72-5.71-5.59-10.4-5.2.02-.41-.23-.34-.47-.44-.79-.32-1.54-.64-2.34-.26-.09-.09.65-.76-.28-1.12,4.02-.42,6.72-1.15,10.57.88,3.73,1.97,4.63,4.31,6.72,7.55Z"/>
          <path class="cls-3" d="M180.64,45.7c-.26.42-.33.66-.7,1.12-.38.24-1.62-.34-1.69-.28-.36.33,1.16.64,1.26.7-.53.62-.93,1.18-1.54,1.77-.36.35-.6.1-.28.91-.23.07-.66.08-.56.42.99-.51,1.66.2,2.32.28.44.05.02-.77.42-.56.24.12.24.47.21.7-.47.23-.87.71-1.4.85.65,1.58,2.37,3.19,3.93,3.92-.17.77.81.37,1.14.76.18.21-.04.46.04.64.12.25,1.1.66,1.06,1.27-3.37-.73-5.86-2.19-7.66-5.2-.91.45-1.23,1.54-1.61,2.39-.69.24-.66-.54-.79-.57-.22-.06-.64.06-.9,0,.27-.81.36-1.35.92-2.1s1.86-1.23,1.18-2.26c-.06-.04-.34.08-.42.14l-1.26-.63c.04-.57.8.28,1.12.07.1-.42-.27-.27-.47-.41-.19-.13-.19-.38-.24-.58.09-.03.19-.12.28-.14.15-.04.39.03.56,0l-.14-.56h.98c.14-.43-.7-.51-.7-.64,0-.36.59-.44.7-.35.05.04-.13.36.21.28.13-.03.05-.16.12-.23.08-.07.22-.04.23-.05.27.27.67-.06,1.05,0,.2.03.52.4.64.28.29-.28-1.13-.57-.84-1.12.29-.31.42-1.01.98-1.27.88-.41.94.56,1.83.42ZM177.13,47.95h-.28v.42h.28v-.42ZM183.45,56.52h-.7c-.01.58.71.58.7,0Z"/>
          <path class="cls-3" d="M163.64,70.72c.41-.08.51.54.66.57.35.07.93-.39,1.03-.29.02.01,0,.28.08.41.3.42,1.13.76,1.64.9.26.07.45.27.39-.18,1.81,2.82,4.02,6.17,6.59,8.45-.07-.07-.18-.07-.25,0s-.07.18,0,.25.18.07.25,0,.07-.18,0-.25c.35.28.9.65,1.28.97-.14.79-1.52.15-1.26-.14.02-.02.58.02.28-.28s-.26.26-.28.28c-.04.06-.69.15-.84.14.04.13.12.66.15.69.08.07,1.64-.25,1.39.22-.19.37-1.29.3-1.69.78-5.22-3.97-5.94-7.6-9.42-12.51Z"/>
          <path class="cls-3" d="M201.3,2.68c.55-.07,1.19.06,1.75,0,.29-.03.53-.29.85-.29.76.01,1.05.84.7,1.42-.08.13-.41.24-.57.42-.59.68-1.12,1.49-1.75,2.12-.17.16-.42.44-.56.56-1.01.88-2.47,1.79-3.79,2.11-.01-.64-.82-.34-1.19-.56-.36,1.25-.81.27-1.58.32-.22.01-.38.27-.52.24-.23-.04-.42-.73-.36-.98,2.79-.23,5.5-1.43,7.31-3.59-1.96.15-3.9.43-5.76,1.06.06-.76-.87-.25-.56-1.41.73-.38,2.11-.67,2.95-.84.98-.21,2.11-.44,3.09-.56Z"/>
          <path class="cls-3" d="M179.94,41.62c.93-.04.4.6.45,1.02.03.25.33.51.37.77.08.49-.46.97.58.87.09-.24-.02-.93.43-.84-.02.31-.65,1.83-.84,2.15-.08.13-.28.08-.29.1-.89.14-.94-.83-1.83-.42.28-1.11,1.1-2.51,1.12-3.66Z"/>
          <path class="cls-3" d="M174.74,49.07c.05.2.05.45.24.58.2.14.57-.01.47.41-.32.21-1.09-.64-1.12-.07l1.26.63c-2.52,2-4.87,2.61-7.35,4.24-2.18,1.44-4.4,4.29-2.6,6.91s6.41.48,8.98,3.11c1.68,1.72,1.13,4.29,2.22,6.21,2.82,5.01,13.35,3.51,11.45-2.74-2.12-6.99-14.66-3.19-14.8-11.42.1-.25.38-.64.66-.68.4-.06.53,1.26,1.17-.02.27.34.1.86.18,1.3.67,3.82,6.92,3.88,9.8,5.1,2.64,1.12,5.12,3.62,5.34,6.61.61,8.46-13.4,9.22-16.09,1.75-.77-2.15-.05-4.88-2.99-5.58-1.07-.25-2.14-.09-3.19-.18-3.67-.31-6.21-3.16-5.35-6.89,1.2-5.18,7.83-6.7,11.74-9.27Z"/>
          <path class="cls-3" d="M184.86,58.21c.04-.61-.94-1.01-1.06-1.27-.09-.18.14-.43-.04-.64-.33-.39-1.31,0-1.14-.76,2.24,1.05,6.18,1.46,8.54.75,4.07-1.22,2.71-4.89-.48-6.21-3.03-1.25-7.67-.73-10.59.68.02-.23.02-.58-.21-.7-.4-.2.02.62-.42.56-.66-.08-1.33-.79-2.32-.28-.1-.34.33-.35.56-.42,2.72-.87,4.74-2.31,7.94-2.53,4.15-.28,10.6,1.65,10.19,6.82-.38,4.85-7.57,4.74-10.97,4Z"/>
        </g>
      </g>
      <path class="cls-3" d="M173.9,54.83c.26.05.68-.07.9,0,.13.04.09.81.79.57-.05.1-.11.2-.14.28-.21-.08-1.06-.11-1.11-.16-.1-.09.21-.83-.71-.12.1-.46.26-.5.28-.56Z"/>
      <path class="cls-3" d="M179.94,46.82c-.23.28-.35.34-.42.42-.1-.07-1.63-.37-1.26-.7.06-.06,1.3.52,1.69.28Z"/>
      <path class="cls-3" d="M183.45,56.52c.01.58-.71.58-.7,0h.7Z"/>
      <rect class="cls-3" x="176.85" y="47.95" width=".28" height=".42"/>
      <circle class="cls-3" cx="173.9" cy="80.7" r=".17"/>
      <path class="cls-3" d="M173.61,55.4c.92-.7.62.03.71.12.06.05.91.08,1.11.16-.07.16-.07.41-.14.56-.64,1.29-.77-.04-1.17.02-.28.04-.56.43-.66.68,0-.56.03-1,.14-1.55Z"/>
    </g>
    <text class="cls-2" transform="translate(.89 197.53)"><tspan x="0" y="0">Allan </tspan><tspan class="cls-8" x="144.44" y="0">Ga</tspan><tspan x="208.38" y="0">briel</tspan></text>
    <text class="cls-4" transform="translate(101.8 228.52)"><tspan x="0" y="0">CRP </tspan><tspan class="cls-6" x="45.63" y="0">15/</tspan><tspan class="cls-5" x="73.39" y="0">8</tspan><tspan class="cls-6" x="84.81" y="0">9</tspan><tspan class="cls-7" x="96.29" y="0">7</tspan><tspan x="106.7" y="0">6</tspan></text>
  </g>
</svg>