<?xml version="1.0" encoding="UTF-8"?>
<svg id="Camada_2" data-name="Camada 2" xmlns="http://www.w3.org/2000/svg" viewBox="0 0 255.92 124.44">
  <defs>
    <style>
      .cls-1 {
        fill: #f09c82;
      }

      .cls-2 {
        letter-spacing: 0em;
      }

      .cls-3 {
        letter-spacing: 0em;
      }

      .cls-4 {
        fill: #f3a38a;
      }

      .cls-5 {
        font-family: AveriaSerifLibre-Light, 'Averia Serif Libre';
        font-size: 12.84px;
        font-weight: 300;
      }

      .cls-5, .cls-6, .cls-7 {
        fill: #2e4844;
      }

      .cls-8 {
        letter-spacing: 0em;
      }

      .cls-9 {
        fill: #f2a086;
      }

      .cls-10 {
        letter-spacing: 0em;
      }

      .cls-7 {
        font-family: AveriaSerifLibre-BoldItalic, 'Averia Serif Libre';
        font-size: 46.03px;
        font-style: italic;
        font-weight: 700;
      }
    </style>
  </defs>
  <g id="Camada_1-2" data-name="Camada 1">
    <g>
      <g>
        <path class="cls-6" d="M31.86,30.63s12.5-6.28,19.26-1.32,13.7,2.82,17.52,9.07c3.82,6.25,9.97,13.5,5.57,21.26-4.39,7.76-9.64,15.15-16.4,8.11-6.75-7.04-7.24-13.93-13.56-15.66-6.32-1.72-15.08-2.08-17.3-5.28s-3.54-9.95,0-12.39c3.54-2.44,4.91-3.8,4.91-3.8Z"/>
        <g>
          <path class="cls-1" d="M21.99,92.8s-.07-.34.08-.36c.35-.05.46.16.4-.36h-1.21s0-.36,0-.36c.39-.25,1.17.29,1.21.24.22-.29-.45-.43-.24-.6.14-.11.9.19.97.12l-.12-.6c.4-.11.18.31.24.36.14.12.82-.37,1.09-.24.27.23.82.35.85.85-.26-.08-.98-.2-1.25-.19-.49,0-1.15.39-.5.8l.06-.48c.55-.09.51.38.72.67.12.16.62.18.28.54l-1,.61c-.1-.05-.84.02-1.09-.24-.03-.04-.08-.08-.12-.12-.15-.95.46-.06.72-.6-.25.11-.57-.2-.67-.2-.08,0-.31.32-.42.2Z"/>
          <path class="cls-9" d="M23.56,93.76s-.02.16.04.2c.12.07.33.07.39.16.07.1.09.69.06.73-.22.27-.21-.43-.48-.24-.01.12.02.25,0,.36-.06-.05-.21-.08-.24-.12-.11-.16-.19-.37-.36-.6-.15-.21-.36-.58-.48-.72.25.26.99.19,1.09.24Z"/>
          <path class="cls-4" d="M28.27,24.77c-.13.73.73.39.85.48.03.02-.16.54,0,.72-.56-.08-.73-.69-1.27-.84-.45-.13.26.85-.36.6-.11-.05-.07-.38-.18-.48.3-.13.6-.34.97-.48Z"/>
          <path class="cls-4" d="M33.94,107.9s-.04-.66.24-.36c.19.2.17,1.49.24,1.81-.09-.03-.33.04-.36,0s-.05-.77-.13-1c-.04-.11-.22-.07-.24-.15-.05-.23.19-.2.24-.3Z"/>
          <path class="cls-1" d="M22.34,90.63s-.34-.02-.35,0c-.03.04.18.68-.53.61-.1,0-.1-.24-.19-.3-.27-.18-1.03.03-.97-.6.66-.64.74-.04,1.06.04.28.07.83-.24,1.4.04.48.24,0,.75-.21.7-.18-.04-.17-.46-.19-.48Z"/>
          <path class="cls-4" d="M27.91,26.23c.08.48-.81.15-1.09.24-.02-.53.83-.22,1.09-.24Z"/>
          <path class="cls-4" d="M31.89,24.78c0,.57-.48.22-.85.24-.1-.45.59-.17.85-.24Z"/>
          <rect class="cls-4" x="30.19" y="25.16" width=".26" height=".68" transform="translate(-9.15 28.9) rotate(-44.99)"/>
          <path class="cls-4" d="M30.44,24.65c.18.21-.16.54-.36.36-.13-.12.25-.49.36-.36Z"/>
          <path class="cls-4" d="M31.05,25.5c-.13.12-.48-.24-.36-.36s.48.24.36.36Z"/>
          <path class="cls-4" d="M31.05,106.93c.14.07,1.14.41,1.21.36l-.36-.84h.72c0,.12.01.24,0,.36,0,.01-.17.11-.12.24.92,0-.04.67.72.91-.03.42-.78-.03-.96.36-.12.26.58.32.61.5.04.25-.15,1,0,1.37-.15.19-.22,0-.24-.18-.05-.4.21-1.15-.36-1.15.13.52,0,1.54.14,1.97.06.21.76.45.46.81-.06.07-.66-.35-.69-.4-.07-.11-.24-.9-.28-.93-.05-.05-.34.15-.36.12-.02-.02.02-.37-.18-.48l-.36.24c-.23-.21-.49-.38-.42-.72.98-.25.91.47,1.57.72.06-.07-.08-.87-.15-1-.12-.22-.4-.25-.45-.41-.09-.27.31-.5.18-.76-.17-.34-.79-.51-1.15-.49.11-.3.63-.07.48-.6Z"/>
          <path class="cls-4" d="M32.49,105.36s-.1.29-.1.42c0,.18.26.72-.25.41-.33-.2-.01-1.18.35-.83Z"/>
          <path class="cls-9" d="M31.41,106.45c-.24.21-.63-.27-.48-.6.25-.12.57.52.48.6Z"/>
          <path class="cls-4" d="M25.73,97.27c-.02-.18-.02-.31.18-.24.13.04.03.16.06.24.12,0,.24,0,.36,0,.02.61-.18.46-.36,0-.08,0-.16,0-.24,0Z"/>
          <path class="cls-4" d="M31.89,106.33c-.13.12-.48-.24-.36-.36s.48.24.36.36Z"/>
          <path class="cls-1" d="M30.08,54.74c.5-.05,1.07.05,1.57,0,.8.32.16.89.24.97.68-.32,1.33-.05,2.01.23.21.09.43.02.41.38-1.81.15-2.99.5-4.95.24.1-.39-.32-.2-.36-.24-.01-.01-.01-.35,0-.36.04-.04.79.13.48-.35-.05-.09-.59-.03-.48-.31.13-.31.77-.51,1.09-.55Z"/>
          <path class="cls-1" d="M70.42,3.51c-.26.99.54.55.48,1.21-.1.12-.22.11-.36.12,0-.75-1.06-.37-1.21-.48-.03-.02.03-.21,0-.24.1-.11.22-.14.36-.12.02,0,.25.22.36.12.03-.03-.03-.28,0-.36.05-.14.24-.18.36-.24Z"/>
          <path class="cls-4" d="M69.33,4.11s-.03.22,0,.24c.15.11,1.21-.26,1.21.48-.04,0-.08,0-.12,0-.11,0-1.09-.07-1.14-.11-.11-.09-.07-.25-.07-.37l-.6.12c.12-.07.22-.32.48-.36.06,0,.23,0,.24,0Z"/>
          <path class="cls-9" d="M55.44,40c-.24.48.97.73.72.97-.1.1-.38-.22-.55-.24-.33-.05-.66.24-.9,0,.27-.3.53-.52.72-.72Z"/>
          <path class="cls-4" d="M56.89,34.08c1.13.14.38.37.36.44-.04.19.1.52-.12.65-.04-.26-.17-.81-.24-1.09Z"/>
          <path class="cls-9" d="M60.4,12.09c0,.08,0,.16,0,.24.13,0,.25-.06.36-.12-.04.15.05.4-.12.55.73-.14.54.02.18.42-.5-.09-.39-.49-.42-.85-.12,0-.24,0-.36,0-.06-.33.1-.24.36-.24Z"/>
          <path class="cls-4" d="M45.18,23.57c.18-.01.81-.4.72.12-.25-.02-.51.08-.72-.12Z"/>
          <path class="cls-4" d="M70.06,3.75c-.03.09.03.33,0,.36-.11.1-.34-.12-.36-.12v-.24c.09.03.25-.02.36,0Z"/>
          <path class="cls-4" d="M44.33,23.57s-.08,0-.12,0l.06-.12.06.12Z"/>
          <path class="cls-4" d="M30.93,48.7c.16.37.32.66.24,1.09-.25-.02-.63.07-.85-.06-.19-.12-.17-.53-.31-.56-.4-.08-.92.49-1.2.49-.2,0-.91-.66-1.11-.71-.24-.06-.9.28-1-.2-.13-.62,1.18.25.97-.54,1.05.11,2.25.41,3.26.48Z"/>
          <path class="cls-4" d="M40.59,39.64c.03.06.3.13.24.36.58.32,1.13.75,1.81.85l.6.72c-.52.04-.91.66-1.49.47-.08-.03-.53-.6-.54-.67-.05-.22.29-.6.22-.89l-.72.12.12-.6c-.74.13-1.13-.22-.24-.36Z"/>
          <path class="cls-4" d="M33.94,48.21c.29.74.02.36-.39.52-.59.23-.6.9-.78.94-.6.13-.93-.49-1-.97.6-.06,1.52-.36,2.17-.48Z"/>
          <path class="cls-4" d="M39.5,40.84c.26.02.39-.04.54-.25.11-.16-.06-.44.31-.35-.31.67.51.22.36.84l-.72.24s-.19,0-.3-.12c-.1-.11-.12-.28-.18-.36Z"/>
          <path class="cls-4" d="M44.09,40.72l.12,1.09c-.48-.04-.69-.55-.6-.97.07,0,.28-.11.48-.12Z"/>
          <path class="cls-4" d="M41.43,42.17c.32.08.95,0,.85.36-.29-.03-.97-.05-.85-.36Z"/>
          <path class="cls-4" d="M43.12,42.54c-.2,0-.41.01-.6,0-.09-.67.31-.27.6,0Z"/>
          <rect class="cls-4" x="33.22" y="49.3" width=".36" height=".36" transform="translate(-16.2 82.71) rotate(-89.8)"/>
          <path class="cls-4" d="M44.69,40.48c-.03.07.03.33,0,.36-.07.07-.3-.11-.36-.12-.06-.32.08-.25.36-.24Z"/>
          <path class="cls-4" d="M34.91,47.13s.22.24.12.36c-.03.04-.21-.02-.24,0l.12-.36Z"/>
          <path class="cls-4" d="M44.09,42.41c-.07.01-.15.09-.36.12-.04-.29.02-.27.3-.24l.06.12Z"/>
          <path class="cls-4" d="M39.26,40.48c.26-.03.27-.02.24.24-.02-.02-.03.1-.24-.24Z"/>
          <path class="cls-4" d="M40.83,41.93c-.24-.11-.24-.16-.36-.24l.36.24Z"/>
          <path class="cls-4" d="M34.07,48.21s.08-.09.12-.12c-.04.03-.08.11-.12.12Z"/>
          <path class="cls-4" d="M27.18,48.21c-.06,0-.11-.06-.12-.12.05.01.1.07.12.12Z"/>
          <path class="cls-1" d="M60.88,15.47c.41-.49,1.68-.75.85.12-.29-.03-.58-.11-.85-.12Z"/>
          <path class="cls-4" d="M58.83,37.1c0-.14-.34-.58.12-.85.01.21.2.56-.12.85Z"/>
          <path class="cls-1" d="M61.97,14.38c.05.45-.23.2-.48.12.08-.18.32-.12.48-.12Z"/>
          <path class="cls-4" d="M58.95,35.65c0-.15,0-.26,0-.36.18.02.18.35,0,.36Z"/>
          <path class="cls-4" d="M58.34,32.99c.24-.04.28,0,.24.24-.12-.09-.17.2-.24-.24Z"/>
          <path class="cls-4" d="M58.83,33.96s-.21.03-.24,0c-.07-.06.12-.23.12-.24l.12.24Z"/>
          <path class="cls-4" d="M58.95,34.44s-.17.01-.24,0c-.05-.14.12-.23.12-.24l.12.24Z"/>
          <path class="cls-9" d="M78.87,63.32c.03.3,0,.64-.36.6-.03-.3,0-.64.36-.6Z"/>
          <path class="cls-9" d="M53.99,70.57s-.46.43-.36-.24c.12.08.27.11.36.24Z"/>
          <path class="cls-4" d="M78.15,60.9c.2,0,.57.07.67.24.06.1-.04.81-.08.84-.07.06-.77-.03-.96,0,.1-.32.29-.81.36-1.09Z"/>
          <path class="cls-4" d="M73.92,39.27c.05.04.26.04.4.12.17.1.3.51.81.36l-.6.48s-.16.04-.28-.15c-.16-.25-.34-.5-.32-.82Z"/>
          <path class="cls-4" d="M75.13,39.51c-.21.18-.54-.16-.36-.36.12-.13.49.25.36.36Z"/>
          <rect class="cls-9" x="59.67" y="12.69" width=".48" height=".36"/>
          <path class="cls-9" d="M62.33,13.3c-.11.29-.38.34-.6.48-.06-.62.29-.4.6-.48Z"/>
          <rect class="cls-9" x="61.6" y="12.21" width=".36" height=".24"/>
          <rect class="cls-9" x="62.33" y="12.57" width=".36" height=".24"/>
          <path class="cls-9" d="M58.95,27.31c-.06-.67.42-.41.78-.49s.52-.3,1.03-.11c.07.64-1.21.24-1.33.36l.12.6c-.61-.21-.49-.3-.6-.36Z"/>
          <path class="cls-9" d="M60.52,28.16c-.36-.17-.44-.28-.6-.36.2-.75.74-.3.6.36Z"/>
          <path class="cls-9" d="M58.22,27.07c.22.06.43-.15.36.24-.16-.05-.3-.02-.36-.24Z"/>
          <path class="cls-9" d="M61.48,28.64c-.22-.09-.5-.07-.6-.36.21.08.45.19.6.36Z"/>
          <path class="cls-9" d="M61.72,28.76l-.12-.12c.08.04.1.11.12.12Z"/>
          <path class="cls-9" d="M61.97,28.88l-.12-.12c.05.03.09.1.12.12Z"/>
          <path class="cls-9" d="M59.79,27.8l-.12-.12c.09.03.11.11.12.12Z"/>
          <path class="cls-9" d="M60.76,28.28l-.12-.12c.09.04.11.12.12.12Z"/>
          <g>
            <path class="cls-4" d="M56.53,26.47c0-.27.36-.39.36-.43.11-.44-.4-.25-.36-.66.69.32,1.04.4,1.81.24l-.48.6c.32.06.71-.2,1-.13.13.03.14.33.27.37.06.02.76-.28.9-.36,2.85,1.3,5.79,2.63,8.33,4.47.22.16.48.42.72.6,3.29,2.53,6.06,5.69,8.09,9.3-.39.1-1.06.16-1.09-.36l.6-.24c-.37.12-.64-.45-.8-.48-.18-.03-.3.3-.53.23.18-1.14-1.07-.65-1.31-.86-.13-.12.08-.72-.74-.34-3.48-4.03-6.8-6.7-11.35-9.54-.03-.02-.07-.09-.12-.12-.03-.02-.09.02-.12,0-.02,0-.04-.08-.12-.12-.03-.02-.09.01-.12,0-.15-.17-.39-.28-.6-.36-.04-.01-.09.01-.12,0,0,0-.03-.08-.12-.12-.03-.01-.09.02-.12,0,.14-.66-.41-1.12-.6-.36-.03-.02-.09.02-.12,0-.01,0-.03-.09-.12-.12-.04-.01-.08.01-.12,0l-.12-.6c.12-.12,1.39.28,1.33-.36-.51-.19-.67.03-1.03.11s-.84-.18-.78.49c-.06-.03-.27.03-.36,0,.07-.39-.15-.18-.36-.24-.58-.16-1.13-.4-1.69-.6Z"/>
            <path class="cls-4" d="M39.38,22c-.01.47-.07.31.27.32,1.64.07,3.38.01,4.99-.08.66-.04,1.33.02,1.99,0-.5,1.26.87.39.97.48.19.32-.51.6-.67.6-.22,0-.42-.32-.62-.34s-.4.31-.58.3c-.08,0-.24-.18-.48-.21-1.26-.12-2.79.14-4.02-.09-.21-.04-.42-.04-.64-.03-.3.23.81.52.84.6-2.73.16-5.81.81-8.45,1.57.01-.68-1.8-.48-1.81-.79,0-.27.51-.04.6-.11.17-.12.12-.48.12-.67,2.6-.83,4.72-1.29,7.49-1.57Z"/>
            <path class="cls-1" d="M46.99,21.88c.07,0,.28.09.48.12.99.13,2.04.38,3.02.6.13.87-.7.56-1.27.6-.13,0-.4-.07-.3.18.34.82,1.33-.07,1.81.24.05.03.6.86.6,1.04-1.7-.45-3.69-.84-5.44-.97.09-.52-.55-.13-.72-.12-.28.02-.57,0-.85,0l-.06-.12-.06.12c-.91.02-1.88-.05-2.78,0-.04-.08-1.15-.37-.84-.6.21-.01.42-.01.64.03,1.23.23,2.76-.03,4.02.09.24.02.4.2.48.21.18.01.37-.32.58-.3s.4.35.62.34c.15,0,.86-.28.67-.6-.1-.1-1.47.77-.97-.48-.66.03-1.33-.04-1.99,0-1.6.09-3.35.15-4.99.08-.34-.01-.28.15-.27-.32.5-.05,1.32-.24,1.75-.24h3.14c.67,0,2.04.05,2.72.12Z"/>
            <path class="cls-4" d="M53.87,23.57c.09.44-.59.25-.48.54.04.12.24.03.36.12s.09.27.17.38c.04.06.18.03.19.05.12.16-.48.44-.24.72-.69-.24-1.79-.53-2.54-.72,0-.17-.55-1-.6-1.04-.48-.3-1.48.59-1.81-.24-.1-.25.17-.17.3-.18.57-.04,1.4.27,1.27-.6,1.18.27,2.23.61,3.38.97Z"/>
            <g>
              <path class="cls-9" d="M31.89,23.57c0,.19.06.55-.12.67-.09.07-.61-.16-.6.11,0,.3,1.82.11,1.81.79-3.01.86-6.43,2.22-9.02,4.08-4.21,3.01-6.07,6.78-8.01,11.38-.09.22-.09.41-.12.48-1.36,3.22-2.67,6.06-5.5,8.33-1.91,1.53-4.04,2.13-6.01,3.41-.95.61-2.79,1.92-1.48,3.13.91.84,2.01,1.2,2.97,1.8.19.12.95.8,1.09.97,1.65,2.05.07,3.95-1.81,4.95-.08.04-.16.08-.24.12-.62.32-2.56.86-2.53,1.76s3.72,1.64,3.3,3.53c-.31,1.4-2.34,1.58-3.18,2.32-1.16,1.03.63,1.51,1.21,2.05.06.06.56.75.62.89.48,1.04.11,1.92-.38,2.86-.07.13-.26.3-.36.48s-.16.34-.24.48c-.06.1-.16.22-.24.36-.04.08-.08.16-.12.24-.05.1-.17.21-.24.36-.79,1.67-.58,2.7.72,3.99.29.29.5.49.85.72,2.67,1.79,6.68,1.65,9.81,2.21,4.26.77,7.11,2.14,10.37,4.92-.27-.12-.95.36-1.09.24-.06-.05.16-.47-.24-.36l.12.6c-.07.07-.83-.23-.97-.12-.21.18.46.31.24.6-.04.05-.82-.5-1.21-.24v.36s1.21,0,1.21,0c.06.52-.05.31-.4.36-.15.02-.1.35-.08.36.1.12.34-.2.42-.2.1,0,.42.31.67.2-.26.54-.88-.35-.72.6-.27-.33-.27-.47-.36-.6-.06-.08-1.31-.98-1.57-1.21-.21-.18-.46-.4-.72-.6-1.37-1.08-2.43-1.76-4.13-2.33-4.4-1.47-10.86-.72-14.11-4.68-.04-.05-.27-.45-.36-.6-.64-.99-1-2.17-.85-3.38.03-.25.26-.82.36-1.09.06-.15.06-.35.12-.48.01-.03.27-.32.36-.48s.17-.38.24-.48c.35-.53,1.17-1.06,1.21-1.81.05-.93-1.21-1.37-1.76-1.93-.96-.97-.96-1.93-.42-3.15.52-.24.88-.68,1.41-.95s1.21-.29,1.61-.81c0-.29-1.95-1.24-2.29-1.63-.42-.49-.73-1.67-.6-2.3.06-.27.97-1.39,1.21-1.57.39-.29,1.68-.95,2.17-1.21.13-.07.27-.04.6-.24.2-.12.49-.08.48-.48.03,0,.09,0,.12,0,.5-.14.53-.93.34-1.37-.38-.87-2.65-1.7-3.52-2.4-1.41-1.13-1.41-1.64-1.41-3.36v-.24c.19-.18.39-.81.6-1.09.05-.06.51-.52.6-.6.14-.13.33-.24.48-.36.23-.17.61-.46.85-.6.06-.04.15-.07.24-.12.3-.18.71-.46.97-.6,1.28-.73,2.47-1.15,3.74-2.05,1.2-.85,1.81-1.45,2.66-2.66.54-.77,1.06-1.68,1.45-2.54.21-.45.32-.79.48-1.21.83-2.09,1.53-4.09,2.66-6.04.11-.19.33-.48.48-.72.47-.77,1.05-1.7,1.57-2.42.18-.24.45-.65.6-.85.22-.27.7-.8.97-1.09.13-.14.33-.32.48-.48.08-.08.16-.16.24-.24s.16-.16.24-.24c.59-.57,1.41-1.32,2.05-1.81.08-.06.23-.15.36-.24,1.59-1.15,3.28-1.99,5.07-2.78.11.11.07.44.18.48.62.25-.09-.73.36-.6.54.16.71.76,1.27.84-.16-.18.03-.7,0-.72-.12-.09-.98.24-.85-.48,1.15-.46,2.44-.83,3.62-1.21ZM30.44,24.65c-.11-.13-.49.25-.36.36.2.18.54-.15.36-.36ZM31.89,24.78c-.26.07-.94-.21-.85.24.36-.02.84.33.85-.24ZM31.05,25.5c.12-.12-.24-.48-.36-.36s.24.48.36.36ZM30.17,25.17l-.18.18.48.48.18-.18-.48-.48ZM27.91,26.23c-.26.02-1.1-.29-1.09.24.28-.09,1.17.24,1.09-.24ZM22.34,90.63s.01.43.19.48c.21.05.69-.45.21-.7-.57-.29-1.12.03-1.4-.04-.32-.08-.4-.67-1.06-.04-.05.63.7.42.97.6.09.06.09.29.19.3.71.07.5-.57.53-.61.01-.01.34,0,.35,0Z"/>
              <path class="cls-9" d="M28.99,105.6c.11-.2.63-.04.76.03.26.14.23.49.57.45.06-.06.05-1.24.48-.84.07.06-.4,1.37.24,1.69.15.54-.37.3-.48.6.36-.02.99.14,1.15.49.13.26-.26.49-.18.76.05.15.33.19.45.41.07.13.2.93.15,1-.66-.26-.59-.98-1.57-.72-.06.35.2.51.42.72l.36-.24c.21.12.17.47.18.48.02.02.31-.17.36-.12.04.03.2.82.28.93.03.05.63.47.69.4.3-.35-.4-.6-.46-.81-.13-.43-.01-1.45-.14-1.97.57,0,.31.75.36,1.15.02.18.1.37.24.18-.14-.36.05-1.11,0-1.37-.03-.19-.73-.25-.61-.5.18-.4.94.06.96-.36-.76-.24.19-.9-.72-.91-.05-.13.12-.23.12-.24l1.21.12c0,.29-.32.69.12.97-.06.1-.29.07-.24.3.02.08.19.04.24.15.08.22.1.96.13,1s.27-.03.36,0c.48.14.14.94.16,1.25s.27.84.31,1.24c.29,2.64.28,5.31.61,7.97.07.56-.23,2.08-.35,2.71-.1.53-.7,1.83-1.29,1.92-.05,0-.86-.5-.89-.55-.03-.04-.43-.89-.47-1.01-.72-1.81-.88-4.4-1.21-6.34-.11-.62-.14-1.31-.24-1.82-.08-.38-.2-.55-.29-1.16-.37-2.31-1.05-5.79-1.76-7.97Z"/>
              <path class="cls-1" d="M25.73,97.27c.08,0,.16,0,.24,0,.18.46.38.61.36,0h.12c.35,1,1.3.07,1.69.49.27.28-.34.23-.36.24-.31.37,1.11,2.01,2.09,1.57.17-.07.04-.33.08-.37.15-.18.52.66.97.48.28.47.42,1.71.72,2.1.09.12.28.03.38.15.4.47.25,1.44.55,2.09.18.39.52.46.59.61.05.11.66,2.18.66,2.3l-1.21-.12c.01-.12,0-.24,0-.36h-.72s.36.84.36.84c-.07.05-1.07-.29-1.21-.36-.64-.32-.18-1.63-.24-1.69-.44-.4-.42.78-.48.84-.34.04-.31-.32-.57-.45-.13-.07-.65-.23-.76-.03-.55-1.7-1.59-3.82-2.42-5.44-.08-.16-.15-.32-.24-.48-.08-.15-.18-.25-.24-.36-.16-.28-.17-.82-.6-.97.03-.49-.27-.74-.48-1.09.27.17.5.01.72,0ZM32.49,105.36c-.36-.34-.68.63-.35.83.51.31.25-.23.25-.41,0-.13.13-.39.1-.42ZM31.41,106.45c.09-.08-.23-.72-.48-.6-.15.33.24.81.48.6ZM31.89,106.33c.12-.12-.24-.48-.36-.36s.24.48.36.36Z"/>
              <path class="cls-4" d="M25.25,91.83c.74.24,2.42,2.53,2.95,3.27.73,1.03,1.34,2.08,2.05,3.02.28.37.38,1.06.67,1.56-.44.18-.81-.66-.97-.48-.04.04.09.29-.08.37-.98.43-2.41-1.2-2.09-1.57.02-.02.63.04.36-.24-.39-.41-1.34.52-1.69-.49-.04-.11.05-.42,0-.48-.05-.05-.47.07-.6-.19-.14-.28.66-.07.36-.54-.14-.22-.74.01-.88,0-.05,0-.16-.38-.44-.25l.6-.24c-.07-.69-1.07-.24-1.57-.24-.12,0-.26-.06-.36-.12.02-.07-.01-.17,0-.24.02-.11-.01-.25,0-.36.27-.19.27.51.48.24.04-.04.02-.63-.06-.73-.06-.09-.27-.08-.39-.16-.06-.04-.03-.19-.04-.2l1-.61c.34-.35-.16-.37-.28-.54-.21-.29-.17-.77-.72-.67l-.06.48c-.65-.41.01-.79.5-.8.27,0,.99.11,1.25.19Z"/>
              <path class="cls-9" d="M23.92,95.33c.49,0,1.5-.45,1.57.24l-.6.24c.28-.13.39.24.44.25.15.01.74-.22.88,0,.3.46-.49.26-.36.54.12.25.55.14.6.19.06.05-.03.37,0,.48h-.12c-.12,0-.24,0-.36,0-.03-.08.07-.2-.06-.24-.2-.06-.2.06-.18.24-.22.01-.46.17-.72,0-.09-.14-.31-.28-.36-.36-.23-.38-.56-1.13-.72-1.57Z"/>
              <path class="cls-9" d="M20.18,40.36c.08-.15,1.08-1.18,1.27-1.33,2.85-2.27,7.34.15,9.42-1.69,1.62-1.43-.93-2.85-1.69-3.75-1.88-2.21-.05-4.22,2.07-5.18,4.1-1.85,11.1-1.54,13.99,2.29.36.48,1.08,2.18,1.18,2.26.05.04.93.22,1.18.33,2.41,1.03,4.07,2.78,5.41,4.98.46.75.94,1.62,1.23,2.45-.1-.08-.6,0-.61.3,0,.1.72.17.6.54h-.84s.12.48.12.48c-.15.02-.35-.03-.48,0-1.17-2.99-2.91-5.84-5.92-7.25,1.02,3.11.72,6.84-3.02,7.61l-.06-.12c-.28-.03-.34-.05-.3.24-.19.02-.41,0-.6,0-.29-.27-.69-.67-.6,0-.08,0-.16,0-.24,0,.11-.36-.53-.28-.85-.36-.35-.09-.34-.12-.6-.24l-.36-.24c-.27-.17-.25-.16-.48-.36l.72-.24c.15-.62-.67-.18-.36-.84-.36-.09-.19.19-.31.35-.15.21-.28.27-.54.25-.02-.02.02-.1,0-.12.03-.26.02-.27-.24-.24-1.88-2.98.28-6.37,3.36-7.34.52-.16,1.26-.19,1.69-.37.11-.05.21,0,.14-.2-.18-.47-1.2-1.66-1.62-2.01-2.5-2.08-9.04-2.04-11.65-.17-2.35,1.68.65,2.85,1.56,4.1,1.86,2.55-.79,4.96-3.33,5.24-2.17.24-6.3-1-7.52,1.42-1.02,2.03.62,4.54,2.34,5.6,1.58-2.64,4.3-3.87,7.36-3.62,2.47.2,6.42,2.15,4.79,5.15-1.44,2.64-6.98,2.08-9.44,1.43-.7-.18-1.35-.51-2.05-.67-.48,2.09.82,4.1,2.72,4.96.8.36,1.64.48,2.48.72-.32.03-.95.24-1.09.55-.12.28.42.22.48.31.31.48-.44.32-.48.35-.01.01-.01.35,0,.36.04.05.46-.15.36.24-.29-.04-.67-.16-.97-.24-.11-.03-.43-.18-.6-.24-1.5-.56-2.72-1.31-3.62-2.66-.19-.29-.61-.92-.72-1.21-.32-.8-.29-1.92-.24-2.78.02-.28.07-.47.12-.72.02-.13.16-.4.11-.47-.65-.38-1.67-1.03-2.16-1.59-.02-.02-.31-.41-.36-.48-.2-.28-.58-1-.72-1.33-.11-.26-.45-1.11-.48-1.33-.05-.31-.03-1.01,0-1.33.03-.27.36-1.61.48-1.81ZM40.59,39.64c-.89.14-.5.49.24.36l-.12.6.72-.12c.08.28-.26.67-.22.89.01.07.46.64.54.67.57.19.97-.43,1.49-.47l-.6-.72c.28.04.67,0,.97,0-.08.42.12.93.6.97l-.12-1.09c.08,0,.17,0,.24,0,.06,0,.29.19.36.12.03-.03-.03-.29,0-.36.16-.34.66-.67.87-1.13.69-1.5.24-3.58-.34-5.04-2.64-.02-5.23,1.59-4.86,4.53.02.15.17.67.23.8ZM34.91,47.13c-.03-.29.07-.49-.11-.79-.09-.14-1.1-.88-1.31-.99-1.34-.66-3.59-.7-4.98-.21-1.09.39-2.43,1.39-2.9,2.47.54.09.89.35,1.45.48.01.06.07.11.12.12.16.02.33-.02.48,0,.22.79-1.1-.08-.97.54.1.48.76.14,1,.2.2.05.91.71,1.11.71.28,0,.79-.58,1.2-.49.14.03.12.44.31.56.22.13.6.04.85.06.08-.43-.09-.72-.24-1.09.25.02.6.02.85,0,.08.48.41,1.1,1,.97.18-.04.19-.71.78-.94.41-.16.68.23.39-.52.04,0,.09.01.12,0,.04-.01.08-.09.12-.12.29-.22.39-.4.6-.6.03-.02.21.03.24,0,.1-.12-.12-.34-.12-.36ZM33.22,49.3v.36s.36,0,.36,0v-.36s-.36,0-.36,0Z"/>
              <path class="cls-9" d="M60.4,11.61c-.88-.02-.27,1.14-1.21.97-.03-.26-.22-1.06-.3-1.33-.25-.77-1.08-1.73-1.75-2.18-.09.6.08,1.18.12,1.75.01.17-.11.36-.09.57.11,1.09.86,1.96,1.54,2.75-.38.52.17.27.3.48.08.12.04.34.12.48s.36.17.4.32c.03.11-.15.37-.1.41.38.33.35-.46.48-.55.23-.16.63.18.49-.46-.01-.06-.48-.13-.24-.32.27-.21.64.48.9.48.07,0,.2-.44.18-.48.08.01.18-.02.24,0,.26.08.53.33.48-.12,1.92-.04,3.86-.03,5.31-1.51-1.2-.32-2.89-.26-4.11.06l-.12-.6.6-.18c-.21-.32-.49-.34-.84-.31-.01-.15.19-.18.24-.24.73.04,1.5-.31,2.24-.36.29-.02.62-.02.9,0,.41.02,1.13.16,1.57.24.11.02.25-.02.36,0,.29.06.6.27.85.36.43.17,1.06.04.53.96-.1.19-1.6,1.44-1.87,1.63-1.16.82-2.57,1.2-3.98,1.28-.71.04-1.28-.06-1.93-.12.84-.87-.44-.61-.85-.12-.21,0-.51-.06-.67.12l-1.15,2.3c1.54-.58,2.95-.68,4.59-.6,1.24.06,1.82,0,1.06,1.37-.69,1.25-2.03,2.41-3.48,2.62-.15.02-.33,0-.48,0-.08,0-.16,0-.24,0-.55,0-.92-.05-1.45-.12-.48-.06-.95-.23-1.44-.23-.16.11-1.04,3.26-.96,3.54s1.86.85,2.24,1.02.78.47,1.13.63c-.14.08-.84.37-.9.36-.13-.03-.14-.33-.27-.37-.29-.07-.69.18-1,.13l.48-.6c-.77.16-1.12.08-1.81-.24-.03.41.47.22.36.66,0,.04-.37.16-.36.43.01,1.38.41,2.73.88,4.02.32.9.78,1.55.94,2.51.07.44.12.15.24.24.02.01.12.42.12.48,0,.01-.19.18-.12.24.03.03.21-.03.24,0,0,0,0,.19,0,.24,0,.02-.17.1-.12.24.07.01.23-.02.24,0,.03.04,0,.68,0,.85,0,.1,0,.22,0,.36,0,.2,0,.4,0,.6-.46.26-.12.7-.12.85,0,.08,0,.16,0,.24-.39-.08-.29.51-.37.72-.89.08-.43-.33-.5-.75-.04-.22-.29-.45-.32-.66-.05-.36.41-.91-.38-.88,0-.03-.1-.47-.12-.6.22-.12.08-.45.12-.65.02-.07.77-.31-.36-.44-.46-1.81-1.55-3.43-1.88-5.31-.16-.92-.29-1.91-.07-2.84-.01-.06-.94-.51-1.07-.55-.25-.28.36-.56.24-.72,0-.01-.15.01-.19-.05-.08-.11-.05-.29-.17-.38s-.32,0-.36-.12c-.1-.29.58-.1.48-.54.04.01.08-.01.12,0,.12.04.24.08.36.12.04.01.08.11.12.12.24.07.47.1.72.12,0-.21.09-.4.12-.6.25-1.41.55-2.3,1.09-3.62.19-.48.4-1.15.6-1.57.44-.91,1.09-1.77,1.57-2.66-1.88-.41-3.01-2.83-3.02-4.59,0-.12,0-.24,0-.36,0-.02.12-.14.13-.29.04-.96.08-1.92.14-2.88.22-.75,1.34.1,1.76.37,1.4.89,2.58,2.18,2.81,3.9ZM62.93,18.73h-2.11c-.06,0-.97.37-1.13.44l-1.1.77h2.6c.43,0,1.53-.77,1.75-1.21Z"/>
              <path class="cls-4" d="M77.67,62.35c.42.76.61-.01,1.02,0,.2,0,.4.65.19.85l.48-.12c.09.26-.21.51-.22.68s.23.28.2.44c-.05.27-.57.57.38.69-1.71,3.85-3.33,5.9-6.71,8.45-.14.11-.35.11-.29.37-.23-.03-.27.09-.36.12-1.72.51-3.16,1.39-5.07,1.69-.22.03-.5-.03-.72,0-5.38.65-10.16-.4-14.61-3.5-.17-.12-.41-.34-.6-.48.34-.41,1.28-.34,1.45-.67.21-.41-1.13-.13-1.2-.19-.03-.02-.1-.48-.13-.59.13,0,.69-.07.73-.12.01-.02-.01-.49.24-.24s-.22.22-.24.24c-.22.25.97.8,1.09.12.1.08.25.17.36.24-.09.67.32.24.36.24.39,0,1.49.78,1.97.99,5,2.22,10.87,1.97,15.7-.65,3.03-1.64,4.91-5.41,6-8.55ZM78.87,63.32c-.37-.03-.39.3-.36.6.37.03.39-.3.36-.6Z"/>
              <path class="cls-9" d="M73.32,38.43c.82-.37.61.23.74.34.24.21,1.49-.28,1.31.86.23.07.35-.26.53-.23.16.03.43.6.8.48l-.6.24c.03.52.69.47,1.09.36,1.02,1.82,2.36,4.49,3.02,6.4.07.19.18.62.24.85.53,1.89,1.17,5.04,1.22,6.95,0,.29-.16.66-.14.83,0,.06.36.33.25,1.11-.29,2.15-.47,4.48-1.24,6.61-.21.59-.59,1.13-.82,1.66-.95-.11-.43-.42-.38-.69.03-.16-.21-.27-.2-.44s.31-.42.22-.68l-.48.12c.21-.2,0-.85-.19-.85-.41,0-.6.76-1.02,0,.04-.12.08-.24.12-.36.19-.04.89.06.96,0,.03-.03.14-.73.08-.84-.1-.17-.47-.24-.67-.24,1.38-5.29.37-12.01-1.83-16.96-.33-.74-1.43-3.18-1.79-3.7l.6-.48c-.51.15-.64-.27-.81-.36-.13-.08-.34-.08-.4-.12-.46-.32-.4-.61-.6-.85ZM75.13,39.51c.13-.11-.25-.49-.36-.36-.18.2.15.54.36.36Z"/>
              <path class="cls-1" d="M65.11,0s.17-.04.21.02c1.07,1.57,1.92,3.61,1.48,5.53.19.05.28-.04.43-.12.39-.21.92-.68,1.39-.97l.6-.12c0,.12-.04.29.07.37.05.03,1.02.12,1.14.11l-2.78,1.99c.62.07,1.31.11,1.93.06-.05.21.11.81.31.84.12.02.26-.2.45-.21.67-.04,1.05.8,1.36-.27.32.2,1.01-.06,1.02.49-.05.01-.1.07-.12.12-.03-.01-.08,0-.12,0-.5-.05-1.9.44-2.6.48-1.03.06-2.87-.35-3.72-.09-.51.15-2.66,2.79-3.1,3.36-.05.06-.25.09-.24.24.35-.03.64-.01.84.31l-.6.18.12.6c-.16.04-.45.26-.85.36-.31.08-.66-.13-.6.48-.22.14-.38.41-.72.36-.1.24.23.32.24.36.01.05-.11.49-.18.48-.26,0-.63-.7-.9-.48-.24.18.23.26.24.32.14.64-.26.29-.49.46-.12.09-.1.88-.48.55-.05-.04.13-.3.1-.41-.04-.15-.32-.18-.4-.32s-.04-.36-.12-.48c-.13-.2-.68.04-.3-.48l.48.24c-.04-.58.06-1.24,0-1.81.94.17.33-.99,1.21-.97.02.15-.02.33,0,.48-.26,0-.43-.09-.36.24.12,0,.24,0,.36,0,.03.36-.07.75.42.85.36-.4.55-.56-.18-.42.17-.14.08-.4.12-.55.04-.13.27-.46.36-.6.17-.25.41-.48.6-.72.14-.18.24-.46.36-.6.18-.22.36-.41.6-.72.02-.03.52-.15.46-.52-.02-.11-.61-1.06-.7-1.29,0-.04,0-.08,0-.12-.37-2.91.06-3.58,1.45-6.04.12-.21.3-.4.35-.67l-.1-.06c.05-.06.07-.18.12-.24.15-.2.32-.3.36-.6.04,0,.08,0,.12,0,.12,0,.24,0,.36,0ZM64.26,8.1c1.01-1.79,1.71-3.65.85-5.68-.32.44-.66,1.1-.86,1.61-.61,1.51-.7,2.27-.16,3.83.04.12.01.28.18.24ZM61.97,12.21h-.36v.24h.36v-.24ZM62.69,12.57h-.36v.24h.36v-.24ZM59.67,12.69v.36h.48v-.36h-.48Z"/>
              <path class="cls-4" d="M46.51,61.99c.05.39-.11.22-.34.16-.43-.12-1.15-.41-1.41-.77-.08-.11-.06-.34-.07-.35-.09-.08-.58.31-.88.25-.12-.03-.21-.56-.56-.49-2.26-3.19-4.91-4.81-8.94-4.47.02-.35-.2-.29-.41-.38-.68-.27-1.33-.55-2.01-.23-.08-.07.56-.65-.24-.97,3.46-.36,5.77-.99,9.08.76s3.98,3.7,5.77,6.49Z"/>
              <path class="cls-1" d="M57.86,39.27c-.22.36-.29.57-.6.97-.33.21-1.39-.29-1.45-.24-.31.29,1,.55,1.09.6-.46.54-.8,1.01-1.33,1.52-.31.3-.52.08-.24.78-.2.06-.57.07-.48.36.85-.43,1.43.17,1.99.24.38.05.01-.66.36-.48.2.1.2.41.18.6-.4.2-.75.61-1.2.73.56,1.36,2.03,2.74,3.38,3.37-.14.66.7.32.98.66.15.18-.04.4.04.55.11.22.94.56.91,1.09-2.9-.63-5.04-1.88-6.59-4.47-.78.39-1.06,1.32-1.38,2.05-.6.21-.57-.46-.68-.49-.19-.05-.55.05-.77,0,.23-.69.31-1.16.79-1.8s1.6-1.05,1.02-1.94c-.05-.04-.29.07-.36.12l-1.09-.55c.03-.49.69.24.96.06.09-.36-.23-.23-.4-.35-.16-.11-.16-.33-.2-.49.08-.03.16-.1.24-.12.13-.03.33.02.48,0l-.12-.48h.84c.12-.37-.6-.44-.6-.55,0-.31.5-.38.61-.3.04.03-.12.31.18.24.11-.03.04-.14.11-.2.07-.06.19-.03.2-.05.24.24.57-.05.9,0,.17.03.45.34.55.24.25-.24-.97-.49-.72-.97.25-.27.36-.86.85-1.09.76-.35.81.48,1.57.36ZM54.84,41.21h-.24v.36h.24v-.36ZM60.27,48.58h-.6c-.01.5.61.5.6,0Z"/>
              <path class="cls-9" d="M43.24,60.78c.36-.07.44.47.56.49.3.06.8-.33.88-.25.01.01,0,.24.07.35.26.36.98.65,1.41.77.23.06.38.23.34-.16,1.56,2.42,3.46,5.3,5.66,7.26-.06-.06-.15-.06-.21,0s-.06.15,0,.21.15.06.21,0,.06-.15,0-.21c.3.24.77.56,1.1.83-.12.68-1.31.13-1.09-.12.02-.02.5.02.24-.24s-.23.22-.24.24c-.04.05-.59.13-.73.12.03.11.11.57.13.59.07.06,1.41-.22,1.2.19-.17.32-1.11.25-1.45.67-4.48-3.41-5.11-6.53-8.09-10.75Z"/>
              <path class="cls-4" d="M75.61,2.3c.47-.06,1.02.05,1.5,0,.25-.03.45-.25.73-.25.65.01.9.72.6,1.22-.07.11-.35.2-.49.36-.5.58-.96,1.28-1.5,1.82-.14.14-.36.38-.48.48-.87.76-2.12,1.54-3.26,1.81-.01-.55-.71-.29-1.02-.49-.31,1.08-.69.23-1.36.27-.19.01-.33.23-.45.21-.2-.04-.36-.63-.31-.84,2.4-.2,4.73-1.23,6.28-3.08-1.68.13-3.35.37-4.95.91.06-.65-.75-.22-.48-1.21.63-.33,1.82-.57,2.54-.72.84-.18,1.81-.37,2.66-.48Z"/>
              <path class="cls-4" d="M57.26,35.77c.8-.03.34.52.38.88.03.21.29.44.32.66.07.42-.4.83.5.75.08-.21-.02-.8.37-.72-.02.27-.56,1.57-.72,1.85-.07.11-.24.07-.25.08-.76.12-.81-.71-1.57-.36.24-.95.95-2.16.97-3.14Z"/>
              <path class="cls-9" d="M52.79,42.17c.04.17.04.38.2.49.17.12.49-.01.4.35-.28.18-.93-.55-.96-.06l1.09.55c-2.16,1.72-4.18,2.24-6.32,3.65-1.87,1.24-3.78,3.68-2.24,5.94s5.51.41,7.71,2.67c1.44,1.48.98,3.68,1.91,5.34,2.42,4.3,11.47,3.02,9.84-2.35-1.83-6.01-12.6-2.74-12.72-9.81.09-.21.33-.55.57-.59.34-.05.45,1.09,1-.02.23.3.09.74.15,1.12.57,3.28,5.95,3.33,8.42,4.38,2.27.97,4.4,3.11,4.59,5.68.53,7.27-11.51,7.92-13.83,1.51-.67-1.85-.04-4.2-2.57-4.8-.92-.22-1.84-.08-2.75-.15-3.15-.27-5.34-2.71-4.6-5.92,1.03-4.46,6.73-5.76,10.09-7.97Z"/>
              <path class="cls-4" d="M61.48,50.03c.03-.53-.81-.87-.91-1.09-.08-.16.12-.37-.04-.55-.28-.34-1.13,0-.98-.66,1.92.9,5.31,1.25,7.34.64,3.49-1.05,2.33-4.2-.42-5.33-2.6-1.08-6.59-.63-9.1.59.02-.2.02-.5-.18-.6-.35-.17.02.53-.36.48-.56-.07-1.14-.68-1.99-.24-.09-.29.28-.3.48-.36,2.34-.75,4.08-1.99,6.83-2.17,3.56-.24,9.11,1.42,8.76,5.86-.33,4.17-6.51,4.07-9.43,3.44Z"/>
            </g>
          </g>
          <path class="cls-9" d="M52.06,47.13c.22.04.59-.06.77,0,.11.03.08.7.68.49-.04.09-.09.17-.12.24-.18-.07-.91-.09-.96-.14-.08-.08.18-.71-.61-.1.08-.4.22-.43.24-.48Z"/>
          <path class="cls-9" d="M57.26,40.24c-.19.24-.3.29-.36.36-.09-.06-1.4-.32-1.09-.6.05-.05,1.12.45,1.45.24Z"/>
          <path class="cls-4" d="M60.27,48.58c.01.5-.61.5-.6,0h.6Z"/>
          <rect class="cls-9" x="54.6" y="41.21" width=".24" height=".36"/>
          <circle class="cls-4" cx="52.06" cy="69.36" r=".15"/>
          <path class="cls-1" d="M51.82,47.61c.79-.61.53.03.61.1.05.05.78.07.96.14-.06.14-.06.36-.12.48-.55,1.11-.66-.03-1,.02-.24.04-.48.37-.57.59,0-.48.02-.86.12-1.33Z"/>
        </g>
      </g>
      <g>
        <text class="cls-7" transform="translate(104.24 48.31)"><tspan x="0" y="0">Allan</tspan><tspan class="cls-10" x="0" y="42.85">Ga</tspan><tspan x="54.95" y="42.85">briel</tspan></text>
        <text class="cls-5" transform="translate(106.44 111.49)"><tspan x="0" y="0">CRP </tspan><tspan class="cls-3" x="28.41" y="0">15/</tspan><tspan class="cls-8" x="45.7" y="0">8</tspan><tspan class="cls-3" x="52.81" y="0">9</tspan><tspan class="cls-2" x="59.96" y="0">7</tspan><tspan x="66.44" y="0">6</tspan></text>
      </g>
    </g>
  </g>
</svg>